<svg xmlns="http://www.w3.org/2000/svg" viewBox="0 0 97.73 105.75"><path d="M326.34,178v-2.8a12.47,12.47,0,0,0,5-1.29q1.42-.9,2.11-4.27h2.61v28.91h-3.53V178h-6.2Z" transform="translate(-291.85 -131.94)"/><path d="M343.66,191.15a5.08,5.08,0,0,0,2.63,4.32,5.85,5.85,0,0,0,2.72.61,4.92,4.92,0,0,0,4.36-2.07,7.93,7.93,0,0,0,1.42-4.58,6.32,6.32,0,0,0-1.68-4.7,5.54,5.54,0,0,0-4-1.66,5.62,5.62,0,0,0-2.93.73,6.52,6.52,0,0,0-2.09,2l-2.87-.18,2-15.63h13.68v3.53h-11.2l-1.12,8.07a7.18,7.18,0,0,1,5.15-1.82,8.27,8.27,0,0,1,6.14,2.57,9,9,0,0,1,2.52,6.53,11.94,11.94,0,0,1-2.31,7.26q-2.31,3.14-7.36,3.14a8.8,8.8,0,0,1-5.69-2,8.21,8.21,0,0,1-2.77-6.13h3.44Z" transform="translate(-291.85 -131.94)"/><path d="M291.85,184.82a52.87,52.87,0,0,0,86.82,40.54l-7.08-6.84a43.09,43.09,0,1,1-2-68.91l-6.11,2.27,0,0,7.54,6.24-4.24,1.57,18.7,15.49,0.48-2.84,2.85-16.73,0.74-4.37-3.07,1.14-1.94.72,0.44-2.57,1.2-7.07v-0.08l-6,2.22A52.88,52.88,0,0,0,291.85,184.82Z" transform="translate(-291.85 -131.94)"/></svg>