<svg xmlns="http://www.w3.org/2000/svg" viewBox="0 0 97.73 105.75"><path d="M139.06,184.64a52.87,52.87,0,0,1-86.82,40.54l7.08-6.84a43.09,43.09,0,1,0,2-68.91l6.11,2.27,0,0L59.86,158l4.24,1.57L45.4,175l-0.48-2.84-2.85-16.73-0.74-4.37,3.07,1.14L46.34,153,45.9,150.4l-1.2-7.07v-0.08l6,2.22A52.88,52.88,0,0,1,139.06,184.64Z" transform="translate(-41.33 -131.77)"/><path d="M79.64,169.82c-0.47,2.24-1.17,3.67-2.12,4.27a12.38,12.38,0,0,1-5,1.28v2.8h6.2v20.56h3.53V169.82H79.64Z" transform="translate(-41.33 -131.77)"/><path d="M102,182.53a8.78,8.78,0,0,0-9.55-1.91,8.34,8.34,0,0,0-1.74,1.16l1.12-8.07H103v-3.53H89.37l-2,15.63L90.23,186a6.51,6.51,0,0,1,2.09-2,5.94,5.94,0,0,1,7,.93,6.34,6.34,0,0,1,1.68,4.71,7.9,7.9,0,0,1-1.42,4.58,4.89,4.89,0,0,1-4.35,2.06,6,6,0,0,1-2.73-.6,5.12,5.12,0,0,1-2.63-4.32H86.41q0.29,4.14,2.76,6.13a8.82,8.82,0,0,0,5.69,2c3.38,0,5.83-1,7.37-3.14a12,12,0,0,0,2.31-7.26A9,9,0,0,0,102,182.53Z" transform="translate(-41.33 -131.77)"/></svg>